HIERARCHY
ROOT Hips
{
	OFFSET 0.000000 0.000000 0.000000
	CHANNELS 6 Xposition Yposition Zposition Zrotation Yrotation Xrotation 
	JOINT LeftUpLeg_virtual
	{
		OFFSET 0.000000 0.000000 0.000000
		CHANNELS 3 Zrotation Yrotation Xrotation
		JOINT LeftUpLeg
		{
			OFFSET 10.205400 -3.823500 0.155100
			CHANNELS 3 Zrotation Yrotation Xrotation
			JOINT LeftLeg
			{
				OFFSET 0.708757 -12.982077 0.567790
				CHANNELS 3 Zrotation Yrotation Xrotation
				JOINT LeftFoot
				{
					OFFSET -0.708756 -10.717838 -2.184338
					CHANNELS 3 Zrotation Yrotation Xrotation
					JOINT LeftToeBase
					{
						OFFSET 0.108149 -7.191104 7.560241
						CHANNELS 3 Zrotation Yrotation Xrotation
						End Site
						{
							OFFSET 0.000000 0.000000 0.000000
						}
					}
				}
			}
		}
	}
	JOINT RightUpLeg_virtual
	{
		OFFSET 0.000000 0.000000 0.000000
		CHANNELS 3 Zrotation Yrotation Xrotation
		JOINT RightUpLeg
		{
			OFFSET -10.205400 -3.823500 0.005500
			CHANNELS 3 Zrotation Yrotation Xrotation
			JOINT RightLeg
			{
				OFFSET -0.708756 -12.982134 0.610632
				CHANNELS 3 Zrotation Yrotation Xrotation
				JOINT RightFoot
				{
					OFFSET 0.708754 -10.717769 -1.945823
					CHANNELS 3 Zrotation Yrotation Xrotation
					JOINT RightToeBase
					{
						OFFSET -0.108140 -7.191069 7.372968
						CHANNELS 3 Zrotation Yrotation Xrotation
						End Site
						{
							OFFSET 0.000000 0.000000 0.000000
						}
					}
				}
			}
		}
	}
	JOINT Spine_virtual
	{
		OFFSET 0.000000 0.000000 0.000000
		CHANNELS 3 Zrotation Yrotation Xrotation
		JOINT Spine
		{
			OFFSET 0.000000 6.876099 0.125700
			CHANNELS 3 Zrotation Yrotation Xrotation
			JOINT Spine1
			{
				OFFSET 0.000000 8.022060 0.146608
				CHANNELS 3 Zrotation Yrotation Xrotation
				JOINT Spine2
				{
					OFFSET 0.000000 9.168068 0.167552
					CHANNELS 3 Zrotation Yrotation Xrotation
					JOINT Neck_virtual
					{
						OFFSET 0.000000 0.000000 0.000000
						CHANNELS 3 Zrotation Yrotation Xrotation
						JOINT Neck
						{
							OFFSET 0.000000 10.314075 0.188496
							CHANNELS 3 Zrotation Yrotation Xrotation
							JOINT Head
							{
								OFFSET 0.000000 7.643700 -2.377400
								CHANNELS 3 Zrotation Yrotation Xrotation
								End Site
								{
									OFFSET 0.000000 0.000000 0.000000
								}
							}
						}
					}
					JOINT LeftShoulder_virtual
					{
						OFFSET 0.000000 0.000000 0.000000
						CHANNELS 3 Zrotation Yrotation Xrotation
						JOINT LeftShoulder
						{
							OFFSET 4.392200 8.824978 0.174984
							CHANNELS 3 Zrotation Yrotation Xrotation
							JOINT LeftArm
							{
								OFFSET 8.771219 -2.981674 -0.026999
								CHANNELS 3 Zrotation Yrotation Xrotation
								JOINT LeftForeArm
								{
									OFFSET 8.512804 0.000000 -0.000000
									CHANNELS 3 Zrotation Yrotation Xrotation
									JOINT LeftHand
									{
										OFFSET 18.484802 0.000000 -0.000000
										CHANNELS 3 Zrotation Yrotation Xrotation
										End Site
										{
											OFFSET 0.000000 0.000000 0.000000
										}
									}
								}
							}
						}
					}
					JOINT RightShoulder_virtual
					{
						OFFSET 0.000000 0.000000 0.000000
						CHANNELS 3 Zrotation Yrotation Xrotation
						JOINT RightShoulder
						{
							OFFSET -4.392200 8.824993 0.141379
							CHANNELS 3 Zrotation Yrotation Xrotation
							JOINT RightArm
							{
								OFFSET -8.771282 -2.981682 -0.094208
								CHANNELS 3 Zrotation Yrotation Xrotation
								JOINT RightForeArm
								{
									OFFSET -8.494598 0.000000 0.000000
									CHANNELS 3 Zrotation Yrotation Xrotation
									JOINT RightHand
									{
										OFFSET -18.483803 0.000000 0.000001
										CHANNELS 3 Zrotation Yrotation Xrotation
										End Site
										{
											OFFSET 0.000000 0.000000 0.000000
										}
									}
								}
							}
						}
					}
				}
			}
		}
	}
}
MOTION
Frames: 10
Frame Time: 0.033333
-7.105643 34.875511 25.200249 1.297751 78.739527 0.703800 -1.901707 -2.395389 10.524886 -7.307855 4.182704 -39.083705 11.251400 7.889611 33.768674 -4.134076 3.081209 8.039342 0.000000 0.000000 0.000000 6.479861 -1.439911 8.103468 -0.095299 11.711611 -30.514376 -3.628345 2.502624 21.394786 7.582238 5.084885 16.296825 0.000000 0.000000 0.000000 2.129537 0.571063 2.151182 0.269418 1.052150 -6.715980 -3.114523 -2.068951 5.847039 0.042979 -0.044215 -0.054083 -3.856036 0.223766 8.676995 -11.277375 6.140869 8.319051 0.000000 0.000000 0.000000 -1.917963 0.803023 5.856451 -4.584689 -7.078701 0.608577 -58.127758 10.525249 9.639808 179.808992 -83.119004 -157.820168 0.000000 0.000000 0.000000 -5.946253 1.958244 5.194942 22.830370 2.227955 0.647428 48.136178 -28.531778 -4.211940 -4.348564 29.864558 -3.178184 0.000000 0.000000 0.000000 
-6.858350 34.902874 24.984587 0.261007 75.850023 -0.403922 -1.816373 -1.765968 10.772099 -8.615737 2.468638 -38.704435 11.420318 9.605355 28.910531 -5.565286 3.197330 8.075242 0.000000 0.000000 0.000000 6.891865 -0.603787 8.544140 -0.382853 11.734346 -31.173724 -3.896529 2.817590 22.401103 8.199124 5.527780 16.290049 0.000000 0.000000 0.000000 2.435455 1.084641 2.414305 0.172594 0.844191 -6.374639 -2.986184 -2.264747 6.042596 -0.009665 -0.072113 -0.101786 -3.843125 0.061941 9.077006 -11.433608 6.383621 7.681051 0.000000 0.000000 0.000000 -1.767467 0.734783 6.168579 -4.671064 -7.181679 0.698647 -57.591950 10.495579 10.263432 -178.664635 -82.439215 -159.203718 0.000000 0.000000 0.000000 -5.728510 1.959179 5.438353 23.210422 2.518294 0.564807 47.239610 -26.333347 -3.617888 -4.502293 30.771467 -3.349210 0.000000 0.000000 0.000000 
-6.574283 34.886322 24.678612 -0.061116 72.815909 -0.755636 -1.670862 -1.095013 11.139103 -10.133377 1.576977 -37.997565 11.901966 11.189259 26.101496 -6.403275 4.022729 8.410359 0.000000 0.000000 0.000000 7.102470 0.279633 8.935220 -0.623235 11.367060 -32.267900 -4.178029 3.090386 24.019462 8.830855 6.279122 16.188925 0.000000 0.000000 0.000000 2.553900 1.716060 2.544428 -0.023159 0.656772 -6.180234 -2.751150 -2.386826 6.343560 -0.022840 -0.032350 -0.146008 -3.634155 -0.041386 9.254684 -11.142080 6.483891 7.372013 0.000000 0.000000 0.000000 -1.430327 0.578120 6.329095 -4.956230 -7.315778 0.705287 -56.968641 10.312472 10.486781 -177.321792 -81.890799 -160.538501 0.000000 0.000000 0.000000 -5.410542 1.680907 5.583305 23.474824 2.800997 0.457951 46.749971 -24.259679 -3.395143 -4.653953 31.447789 -3.583352 0.000000 0.000000 0.000000 
-6.281713 34.838989 24.318296 0.104134 69.997705 -0.594085 -1.376530 -0.522799 11.677696 -11.504777 1.124390 -37.333018 12.335579 11.716736 24.928042 -7.954329 4.232944 8.024881 0.000000 0.000000 0.000000 6.932447 0.787881 9.495142 -0.796913 10.561615 -33.519143 -4.377297 3.437512 26.274575 9.613624 7.389526 14.811755 0.000000 0.000000 0.000000 2.508062 2.236849 2.702606 -0.235053 0.480662 -6.215651 -2.450503 -2.473714 6.188535 -0.029753 0.040723 -0.070543 -3.325868 -0.198436 9.432403 -10.146529 6.463642 7.426517 0.000000 0.000000 0.000000 -1.109180 0.402606 6.541059 -5.544624 -7.531953 0.766500 -56.112419 9.642294 10.426741 -176.464945 -81.703761 -161.502746 0.000000 0.000000 0.000000 -5.033612 1.592518 5.821412 23.546343 2.959894 0.349781 46.716199 -22.718225 -3.285619 -4.830710 31.936032 -3.921162 0.000000 0.000000 0.000000 
-6.012589 34.789951 23.981070 0.480539 67.182437 -0.330861 -1.190957 0.187735 12.348547 -13.008704 1.764340 -36.938124 13.118749 12.655126 24.355968 -8.068765 5.471763 7.435120 0.000000 0.000000 0.000000 6.596539 0.937051 10.049855 -0.578131 9.148359 -34.972529 -4.642895 3.044004 28.986701 10.081063 8.280036 13.949664 0.000000 0.000000 0.000000 2.337539 2.613527 2.791194 -0.379167 0.321710 -6.333845 -2.131555 -2.531549 6.247075 0.030781 0.118302 -0.068297 -2.974931 -0.407972 9.430667 -8.425553 6.151431 7.799965 0.000000 0.000000 0.000000 -0.818345 0.313639 6.427445 -6.419332 -7.806823 0.857168 -55.181416 8.477995 9.990204 -174.971196 -81.754257 -163.217725 0.000000 0.000000 0.000000 -4.751616 1.484987 5.786080 23.383042 3.104372 0.262556 47.121513 -21.882497 -3.070010 -5.042394 32.215120 -4.431890 0.000000 0.000000 0.000000 
-5.756855 34.763451 23.735462 0.601461 64.795949 -0.244887 -1.079632 0.776583 13.235715 -14.409343 2.485539 -36.968197 13.625111 13.212545 23.669370 -8.194582 6.512221 7.064728 0.000000 0.000000 0.000000 6.250050 0.799499 10.525438 0.071617 7.234176 -36.495880 -4.877992 2.297208 31.746644 10.415386 8.971605 13.731648 0.000000 0.000000 0.000000 2.325436 2.782141 2.792642 -0.343384 0.262782 -6.504574 -1.876767 -2.567880 6.209240 0.000434 0.197385 -0.030069 -2.526326 -0.485497 9.339745 -6.106362 5.479151 8.329268 0.000000 0.000000 0.000000 -0.560286 0.248330 6.248667 -7.503468 -8.108130 0.889732 -54.092387 6.853519 9.504519 -174.597011 -82.168972 -163.928638 0.000000 0.000000 0.000000 -4.451537 1.448031 5.757826 23.041380 3.272864 0.236955 47.750331 -21.765052 -2.661240 -5.227495 32.332804 -4.859144 0.000000 0.000000 0.000000 
-5.514852 34.771038 23.634789 0.434875 63.263534 -0.014215 -1.010256 1.061851 13.325948 -15.309200 2.851577 -37.084280 14.081839 12.621444 23.866829 -8.254221 7.274428 6.352003 0.000000 0.000000 0.000000 5.754723 0.697251 11.235771 0.366005 5.806680 -37.587866 -5.154570 2.317553 34.607230 10.489341 9.568124 13.956373 0.000000 0.000000 0.000000 2.425033 2.733101 2.503745 -0.125405 0.272728 -6.884085 -1.557623 -2.652649 6.215473 0.014576 0.199277 -0.115894 -2.318251 -0.702300 9.351333 -3.210212 4.301191 9.062319 0.000000 0.000000 0.000000 -0.518157 0.065914 6.195786 -8.696196 -8.432096 0.797520 -53.034807 5.025488 8.945857 -173.864378 -82.880705 -165.094319 0.000000 0.000000 0.000000 -4.364845 1.268558 5.708130 22.596759 3.388922 0.292251 48.543797 -22.276322 -2.027629 -5.580933 32.202307 -5.512317 0.000000 0.000000 0.000000 
-5.303113 34.801010 23.690157 0.271241 62.752206 0.065498 -0.977060 0.111796 13.653088 -16.127222 3.213730 -37.007092 14.938875 11.253158 23.880127 -8.141262 7.846427 5.468419 0.000000 0.000000 0.000000 5.329700 0.943833 11.721221 0.200384 5.168524 -38.646501 -5.253822 2.620410 36.998448 10.423203 10.134154 14.076588 0.000000 0.000000 0.000000 2.581655 2.460244 2.308911 0.253667 0.258055 -7.115046 -1.354994 -2.844766 6.197531 -0.003378 0.072023 0.007670 -1.967554 -0.548916 9.261723 0.134111 3.141052 9.852969 0.000000 0.000000 0.000000 -0.441858 0.002242 6.214810 -9.772507 -8.952020 0.640351 -52.136719 3.226166 8.360828 -173.971858 -83.686859 -165.479733 0.000000 0.000000 0.000000 -4.226219 1.181303 5.598236 22.132519 3.646800 0.430451 49.284302 -23.088029 -1.572448 -5.744887 31.769976 -5.972477 0.000000 0.000000 0.000000 
-5.094548 34.843033 23.889395 0.129434 62.422936 0.162257 -0.788359 -0.762852 13.924210 -16.178681 2.769815 -36.842525 15.967749 10.608900 24.055462 -8.356217 7.624965 4.839762 0.000000 0.000000 0.000000 4.941647 1.350880 12.025760 -0.625171 4.592907 -39.430808 -5.442876 3.004715 38.866867 10.014364 10.346380 14.841981 0.000000 0.000000 0.000000 2.713896 2.249267 2.061783 0.687820 0.355105 -7.353276 -1.230533 -2.989656 6.342392 0.023603 0.002668 0.021571 -1.655672 -0.610520 9.332369 3.822491 1.709078 10.768796 0.000000 0.000000 0.000000 -0.409135 -0.138503 6.225718 -10.736714 -9.341850 0.543179 -51.655665 1.772041 7.904041 -172.756507 -84.478163 -167.227865 0.000000 0.000000 0.000000 -4.194606 1.032858 5.596842 21.677625 3.915548 0.542918 49.780222 -24.204799 -1.185239 -5.865818 30.882734 -6.346708 0.000000 0.000000 0.000000 
-4.913987 34.883793 24.172401 -0.090148 62.008952 0.053297 -0.586880 -1.107433 14.220217 -15.917771 2.578699 -36.536512 16.470878 10.078945 24.402671 -8.242977 7.405764 4.378893 0.000000 0.000000 0.000000 4.722822 1.428564 12.071810 -1.732211 3.583681 -40.247252 -6.000821 2.601170 39.881860 8.748314 9.611277 15.756101 0.000000 0.000000 0.000000 2.805233 2.201898 1.936336 1.046881 0.535721 -7.459634 -0.980820 -3.046812 6.400770 -0.017462 0.036352 0.052908 -1.335214 -0.877434 9.394519 7.489705 0.221419 11.739137 0.000000 0.000000 0.000000 -0.278259 -0.292839 6.178878 -11.558069 -9.675611 0.548909 -51.555736 0.919856 7.489721 -172.603101 -85.127858 -167.881187 0.000000 0.000000 0.000000 -4.031988 0.844592 5.667230 21.266332 4.258059 0.576489 50.014791 -25.458128 -1.318029 -5.863990 29.591118 -6.581066 0.000000 0.000000 0.000000 
